<?xml version="1.0" encoding="utf-8"?>
<!-- Generator: Adobe Illustrator 16.0.0, SVG Export Plug-In . SVG Version: 6.00 Build 0)  -->
<!DOCTYPE svg PUBLIC "-//W3C//DTD SVG 1.1//EN" "http://www.w3.org/Graphics/SVG/1.1/DTD/svg11.dtd">
<svg version="1.1" id="Layer_1" xmlns="http://www.w3.org/2000/svg" xmlns:xlink="http://www.w3.org/1999/xlink" x="0px" y="0px"
	 width="130px" height="50px" viewBox="0 0 130 50" enable-background="new 0 0 130 50" xml:space="preserve">
<g>
	<path fill="#E41E29" d="M71.614,0.973l-22.23,15.366h2.525l-3.887,4.548v4.516l0,0l1.995-1.73l0.375-3.854l4.801-4.916v1.539"/>
	<path fill="#E41E29" d="M21.54,48.969l14.4-12.574h-4.499v-2.851l-2.211,2.851h-4.215v-2.843l-3.351,2.314
		c0-4.464,0-10.471,0-18.564c0,0,0,0-20.646,0l0,0c0,0,7.406,5.375,12.257,12.849c4.677,7.261,7.583,14.943,8.129,17.732
		 M34.111,10.037c0,2.701-2.171,4.873-4.921,4.873c-2.702,0-4.874-2.172-4.874-4.873c0-2.752,2.171-4.922,4.874-4.922
		C31.939,5.115,34.111,7.285,34.111,10.037L34.111,10.037L34.111,10.037z M31.441,29.109l-1.408,0.975v1.493h1.408V29.109
		L31.441,29.109z M41.489,31.577l0.571-0.499v-8.196l-5.538,6.515v2.182L41.489,31.577L41.489,31.577z"/>
	<polygon fill="#E41E29" points="127.9,38.572 43.652,38.572 43.652,37.411 127.9,37.411 	"/>
	<polygon fill="#E41E29" points="127.9,38.572 43.652,38.572 43.652,37.411 127.9,37.411 	"/>
	<g>
		<polygon fill="#E41E29" points="122.125,35.428 126.076,35.428 128.748,32.096 125.727,32.096 125.727,21.014 128.98,17.254 
			125.727,17.254 125.727,10.552 122.125,14.04 		"/>
		<polygon fill="#E41E29" points="98.023,35.428 101.629,35.428 101.629,21.518 103.254,20.004 104.535,21.557 104.535,35.428 
			107.594,35.428 110.229,32.096 108.02,32.096 108.02,19.502 105.617,16.441 101.629,20.549 101.629,16.441 98.023,20.199 		"/>
		<polygon fill="#273889" points="76.791,20.209 80.404,16.389 80.404,19.665 83.613,16.389 86.271,19.729 89.818,16.389 
			92.414,19.527 92.414,32.079 94.592,32.079 91.934,35.419 88.932,35.419 88.932,21.711 87.363,19.729 86.344,20.754 
			86.344,35.419 82.996,35.419 82.996,21.505 81.428,19.665 80.404,20.686 80.404,35.419 76.791,35.419 		"/>
		<path fill="#273889" d="M73.584,32.079V20.277l-3.752-3.889l-6.068,5.047v0.615h3.886v-2.797l2.457,2.662l-6.141,5.588v7.915
			h2.936l3.205-2.798v2.798h3.136l2.666-3.34L73.584,32.079L73.584,32.079z M70.107,32.079h-2.592v-6.755l2.592-2.387V32.079z"/>
		<polygon fill="#273889" points="51.005,20.209 54.623,16.389 54.623,20.549 58.646,16.389 61.034,19.459 61.034,32.079 
			63.217,32.079 60.624,35.419 57.557,35.419 57.557,21.505 56.258,20.004 54.623,21.505 54.623,35.419 51.005,35.419 		"/>
		<polygon fill="#273889" points="43.57,14 47.187,10.523 47.187,17.209 50.393,17.209 47.187,20.959 47.187,32.079 50.187,32.079 
			47.529,35.419 43.57,35.419 		"/>
		<path fill="#273889" d="M36.137,28.666l5.798-6.821l-3.82-5.456l-5.593,5.799v13.231h5.525l3.138-3.34h-5.048V28.666z
			 M36.137,19.527l2.932,4.502l-2.932,3.475V19.527z"/>
		<polygon fill="#273889" points="25.835,20.209 29.385,16.389 29.385,32.079 31.566,32.079 28.974,35.419 25.835,35.419 		"/>
		<path fill="#E41E29" d="M114.684,28.688l5.813-6.821l-3.797-5.424l-5.619,5.734v13.252h5.502l3.142-3.332h-5.039v-3.408H114.684z
			 M114.684,19.579l2.945,4.456l-2.945,3.486V19.579z"/>
	</g>
	<g enable-background="new    ">
		<path fill="#273889" d="M50.556,40.699l-2.388,6.49h-1.892l-2.389-6.49h1.775l1.583,4.557l1.583-4.557H50.556z"/>
		<path fill="#273889" d="M55.039,47.189h-3.836v-1.15h1.073V41.85h-1.073v-1.15h3.836v1.15h-1.074v4.189h1.074V47.189z"/>
		<path fill="#273889" d="M61.153,47.189h-4.737v-6.49h4.737v1.255h-3.057v1.12h2.837v1.256h-2.837v1.604h3.057V47.189z"/>
		<path fill="#273889" d="M67.693,41.954h-2.045v5.235h-1.689v-5.235h-2.045v-1.255h5.78V41.954z"/>
		<path fill="#273889" d="M74.666,47.189h-1.628l-2.78-4.455v4.455H68.71v-6.49h2.019l2.389,3.718v-3.718h1.549V47.189z"/>
		<path fill="#273889" d="M82.391,47.189h-1.745l-0.456-1.313h-2.424l-0.457,1.313h-1.701l2.419-6.49h1.944L82.391,47.189z
			 M79.783,44.688l-0.806-2.326l-0.806,2.326H79.783z"/>
		<path fill="#273889" d="M90.197,47.189h-1.68v-4.346l-1.215,2.82h-1.165l-1.214-2.82v4.346h-1.592v-6.49h1.961l1.474,3.256
			l1.47-3.256h1.961V47.189z"/>
		<path fill="#273889" d="M97.825,47.189h-1.628l-2.779-4.455v4.455h-1.549v-6.49h2.02l2.389,3.718v-3.718h1.548V47.189z"/>
		<path fill="#273889" d="M104.234,47.189h-4.737v-6.49h4.737v1.255h-3.057v1.12h2.837v1.256h-2.837v1.604h3.057V47.189z"/>
		<path fill="#273889" d="M110.775,41.954h-2.045v5.235h-1.689v-5.235h-2.046v-1.255h5.78V41.954z"/>
		<path fill="#273889" d="M113.406,47.189h-1.646v-1.713h1.646V47.189z"/>
		<path fill="#273889" d="M120.984,40.699l-2.389,6.49h-1.891l-2.389-6.49h1.774l1.583,4.557l1.583-4.557H120.984z"/>
		<path fill="#273889" d="M127.882,47.189h-1.628l-2.779-4.455v4.455h-1.549v-6.49h2.02l2.389,3.718v-3.718h1.548V47.189z"/>
	</g>
</g>
</svg>
